<svg width="1440" height="41" viewBox="0 0 1440 41" fill="none" xmlns="http://www.w3.org/2000/svg">
<path d="M-10 -7V41M-5.43396 -7L-5.43396 20.4286M-0.867924 -7L-0.867925 20.4286M3.69811 -7L3.69811 20.4286M8.26415 -7V20.4286M12.8302 -7V41M17.3962 -7V20.4286M21.9623 -7V20.4286M26.5283 -7V20.4286M31.0943 -7V20.4286M35.6604 -7V41M40.2264 -7V20.4286M44.7924 -7V20.4286M49.3585 -7V20.4286M53.9245 -7V20.4286M58.4906 -7V41M63.0566 -7V20.4286M67.6226 -7V20.4286M72.1887 -7V20.4286M76.7547 -7V20.4286M81.3207 -7V41M85.8868 -7V20.4286M90.4528 -7V20.4286M95.0189 -7V20.4286M99.5849 -7V20.4286M104.151 -7V41M108.717 -7V20.4286M113.283 -7V20.4286M117.849 -7V20.4286M122.415 -7V20.4286M126.981 -7V41M131.547 -7V20.4286M136.113 -7V20.4286M140.679 -7V20.4286M145.245 -7V20.4286M149.811 -7V41M154.377 -7V20.4286M158.943 -7V20.4286M163.509 -7V20.4286M168.075 -7V20.4286M172.641 -7V41M177.208 -7V20.4286M181.774 -7V20.4286M186.34 -7V20.4286M190.906 -7V20.4286M195.472 -7V41M200.038 -7V20.4286M204.604 -7V20.4286M209.17 -7V20.4286M213.736 -7V20.4286M218.302 -7V41M222.868 -7V20.4286M227.434 -7V20.4286M232 -7V20.4286M236.566 -7V20.4286M241.132 -7V41M245.698 -7V20.4286M250.264 -7V20.4286M254.83 -7V20.4286M259.396 -7V20.4286M263.962 -7V41M268.528 -7V20.4286M273.094 -7V20.4286M277.66 -7V20.4286M282.226 -7V20.4286M286.792 -7V41M291.358 -7V20.4286M295.924 -7V20.4286M300.491 -7V20.4286M305.057 -7V20.4286M309.623 -7V41M314.189 -7V20.4286M318.755 -7V20.4286M323.321 -7V20.4286M327.887 -7V20.4286M332.453 -7V41M337.019 -7V20.4286M341.585 -7V20.4286M346.151 -7V20.4286M350.717 -7V20.4286M355.283 -7V41M359.849 -7V20.4286M364.415 -7V20.4286M368.981 -7V20.4286M373.547 -7V20.4286M378.113 -7V41M382.679 -7V20.4286M387.245 -7V20.4286M391.811 -7V20.4286M396.377 -7V20.4286M400.943 -7V41M405.509 -7V20.4286M410.075 -7V20.4286M414.641 -7V20.4286M419.207 -7V20.4286M423.774 -7V41M428.34 -7V20.4286M432.906 -7V20.4286M437.472 -7V20.4286M442.038 -7V20.4286M446.604 -7V41M451.17 -7V20.4286M455.736 -7V20.4286M460.302 -7V20.4286M464.868 -7V20.4286M469.434 -7V41M474 -7V20.4286M478.566 -7V20.4286M483.132 -7V20.4286M487.698 -7V20.4286M492.264 -7V41M496.83 -7V20.4286M501.396 -7V20.4286M505.962 -7V20.4286M510.528 -7V20.4286M515.094 -7V41M519.66 -7V20.4286M524.226 -7V20.4286M528.792 -7V20.4286M533.358 -7V20.4286M537.924 -7V41M542.49 -7V20.4286M547.057 -7V20.4286M551.623 -7V20.4286M556.189 -7V20.4286M560.755 -7V41M565.321 -7V20.4286M569.887 -7V20.4286M574.453 -7V20.4286M579.019 -7V20.4286M583.585 -7V41M588.151 -7V20.4286M592.717 -7V20.4286M597.283 -7V20.4286M601.849 -7V20.4286M606.415 -7V41M610.981 -7V20.4286M615.547 -7V20.4286M620.113 -7V20.4286M624.679 -7V20.4286M629.245 -7V41M633.811 -7V20.4286M638.377 -7V20.4286M642.943 -7V20.4286M647.509 -7V20.4286M652.075 -7V41M656.641 -7V20.4286M661.207 -7V20.4286M665.773 -7V20.4286M670.34 -7V20.4286M674.906 -7V41M679.472 -7V20.4286M684.038 -7V20.4286M688.604 -7V20.4286M693.17 -7V20.4286M697.736 -7V41M702.302 -7V20.4286M706.868 -7V20.4286M711.434 -7V20.4286M716 -7V20.4286M721 -7V41M725.566 -7V20.4286M730.132 -7V20.4286M734.698 -7V20.4286M739.264 -7V20.4286M743.83 -7V41M748.396 -7V20.4286M752.962 -7V20.4286M757.528 -7V20.4286M762.094 -7V20.4286M766.66 -7V41M771.226 -7V20.4286M775.792 -7V20.4286M780.358 -7V20.4286M784.924 -7V20.4286M789.491 -7V41M794.057 -7V20.4286M798.623 -7V20.4286M803.189 -7V20.4286M807.755 -7V20.4286M812.321 -7V41M816.887 -7V20.4286M821.453 -7V20.4286M826.019 -7V20.4286M830.585 -7V20.4286M835.151 -7V41M839.717 -7V20.4286M844.283 -7V20.4286M848.849 -7V20.4286M853.415 -7V20.4286M857.981 -7V41M862.547 -7V20.4286M867.113 -7V20.4286M871.679 -7V20.4286M876.245 -7V20.4286M880.811 -7V41M885.377 -7V20.4286M889.943 -7V20.4286M894.509 -7V20.4286M899.075 -7V20.4286M903.641 -7V41M908.208 -7V20.4286M912.774 -7V20.4286M917.34 -7V20.4286M921.906 -7V20.4286M926.472 -7V41M931.038 -7V20.4286M935.604 -7V20.4286M940.17 -7V20.4286M944.736 -7V20.4286M949.302 -7V41M953.868 -7V20.4286M958.434 -7V20.4286M963 -7V20.4286M967.566 -7V20.4286M972.132 -7V41M976.698 -7V20.4286M981.264 -7V20.4286M985.83 -7V20.4286M990.396 -7V20.4286M994.962 -7V41M999.528 -7V20.4286M1004.09 -7V20.4286M1008.66 -7V20.4286M1013.23 -7V20.4286M1017.79 -7V41M1022.36 -7V20.4286M1026.92 -7V20.4286M1031.49 -7V20.4286M1036.06 -7V20.4286M1040.62 -7V41M1045.19 -7V20.4286M1049.75 -7V20.4286M1054.32 -7V20.4286M1058.89 -7V20.4286M1063.45 -7V41M1068.02 -7V20.4286M1072.58 -7V20.4286M1077.15 -7V20.4286M1081.72 -7V20.4286M1086.28 -7V41M1090.85 -7V20.4286M1095.42 -7V20.4286M1099.98 -7V20.4286M1104.55 -7V20.4286M1109.11 -7V41M1113.68 -7V20.4286M1118.25 -7V20.4286M1122.81 -7V20.4286M1127.38 -7V20.4286M1131.94 -7V41M1136.51 -7V20.4286M1141.08 -7V20.4286M1145.64 -7V20.4286M1150.21 -7V20.4286M1154.77 -7V41M1159.34 -7V20.4286M1163.91 -7V20.4286M1168.47 -7V20.4286M1173.04 -7V20.4286M1177.6 -7V41M1182.17 -7V20.4286M1186.74 -7V20.4286M1191.3 -7V20.4286M1195.87 -7V20.4286M1200.43 -7V41M1205 -7V20.4286M1209.57 -7V20.4286M1214.13 -7V20.4286M1218.7 -7V20.4286M1223.26 -7V41M1227.83 -7V20.4286M1232.4 -7V20.4286M1236.96 -7V20.4286M1241.53 -7V20.4286M1246.09 -7V41M1250.66 -7V20.4286M1255.23 -7V20.4286M1259.79 -7V20.4286M1264.36 -7V20.4286M1268.92 -7V41M1273.49 -7V20.4286M1278.06 -7V20.4286M1282.62 -7V20.4286M1287.19 -7V20.4286M1291.75 -7V41M1296.32 -7V20.4286M1300.89 -7V20.4286M1305.45 -7V20.4286M1310.02 -7V20.4286M1314.58 -7V41M1319.15 -7V20.4286M1323.72 -7V20.4286M1328.28 -7V20.4286M1332.85 -7V20.4286M1337.42 -7V41M1341.98 -7V20.4286M1346.55 -7V20.4286M1351.11 -7V20.4286M1355.68 -7V20.4286M1360.25 -7V41M1364.81 -7V20.4286M1369.38 -7V20.4286M1373.94 -7V20.4286M1378.51 -7V20.4286M1383.08 -7V41M1387.64 -7V20.4286M1392.21 -7V20.4286M1396.77 -7V20.4286M1401.34 -7V20.4286M1405.91 -7V41M1410.47 -7V20.4286M1415.04 -7V20.4286M1419.6 -7V20.4286M1424.17 -7V20.4286M1428.74 -7V41M1433.3 -7V20.4286M1437.87 -7V20.4286M1442.43 -7V20.4286M1447 -7V20.4286" stroke="#C7C7C7"/>
</svg>
