<svg width="190" height="65" viewBox="0 0 190 65" fill="none" xmlns="http://www.w3.org/2000/svg">
<path d="M15.5826 49.3359V60H13.3927V49.3359H15.5826ZM34.8699 49.3359V60H32.6727L28.388 52.8516V60H26.1907V49.3359H28.388L32.68 56.4917V49.3359H34.8699ZM47.5288 49.3359V60H45.3315V49.3359H47.5288ZM51.7769 53.8916V55.6055H46.9282V53.8916H51.7769ZM52.2896 49.3359V51.0571H46.9282V49.3359H52.2896ZM62.114 49.3359H66.091C66.9064 49.3359 67.6071 49.458 68.1931 49.7021C68.7839 49.9463 69.238 50.3076 69.5554 50.7861C69.8728 51.2646 70.0314 51.853 70.0314 52.5513C70.0314 53.1226 69.9338 53.6133 69.7385 54.0234C69.548 54.4287 69.2771 54.7681 68.9255 55.0415C68.5788 55.3101 68.1711 55.5249 67.7023 55.686L67.0065 56.0522H63.5495L63.5349 54.3384H66.1057C66.4914 54.3384 66.8112 54.27 67.0651 54.1333C67.319 53.9966 67.5095 53.8062 67.6364 53.562C67.7683 53.3179 67.8342 53.0347 67.8342 52.7124C67.8342 52.3706 67.7707 52.0752 67.6438 51.8262C67.5168 51.5771 67.3239 51.3867 67.0651 51.2549C66.8064 51.123 66.4816 51.0571 66.091 51.0571H64.3112V60H62.114V49.3359ZM68.0759 60L65.6442 55.2466L67.966 55.2319L70.427 59.8975V60H68.0759ZM84.6093 51.1597L81.7089 60H79.3725L83.3349 49.3359H84.8217L84.6093 51.1597ZM87.0189 60L84.1112 51.1597L83.8769 49.3359H85.3783L89.3627 60H87.0189ZM86.8871 56.0303V57.7515H81.2548V56.0303H86.8871ZM112.19 49.3359H114.051L116.79 57.1655L119.529 49.3359H121.389L117.537 60H116.043L112.19 49.3359ZM111.187 49.3359H113.04L113.377 56.9678V60H111.187V49.3359ZM120.54 49.3359H122.4V60H120.203V56.9678L120.54 49.3359ZM137.344 51.1597L134.444 60H132.107L136.07 49.3359H137.557L137.344 51.1597ZM139.754 60L136.846 51.1597L136.612 49.3359H138.113L142.098 60H139.754ZM139.622 56.0303V57.7515H133.99V56.0303H139.622ZM151.636 49.3359H155.613C156.429 49.3359 157.13 49.458 157.716 49.7021C158.306 49.9463 158.76 50.3076 159.078 50.7861C159.395 51.2646 159.554 51.853 159.554 52.5513C159.554 53.1226 159.456 53.6133 159.261 54.0234C159.07 54.4287 158.799 54.7681 158.448 55.0415C158.101 55.3101 157.694 55.5249 157.225 55.686L156.529 56.0522H153.072L153.057 54.3384H155.628C156.014 54.3384 156.334 54.27 156.588 54.1333C156.841 53.9966 157.032 53.8062 157.159 53.562C157.291 53.3179 157.357 53.0347 157.357 52.7124C157.357 52.3706 157.293 52.0752 157.166 51.8262C157.039 51.5771 156.846 51.3867 156.588 51.2549C156.329 51.123 156.004 51.0571 155.613 51.0571H153.834V60H151.636V49.3359ZM157.598 60L155.167 55.2466L157.488 55.2319L159.949 59.8975V60H157.598ZM174.124 49.3359V60H171.934V49.3359H174.124ZM177.406 49.3359V51.0571H168.704V49.3359H177.406Z" fill="black"/>
<path d="M101.377 40.4534C99.2223 40.4534 97.2659 40.4534 95.2244 40.4534C95.1961 40.0447 95.1677 39.6943 95.1677 39.3439C95.1677 30.4972 95.1677 21.6504 95.1677 12.8037C95.1677 10.7307 95.4796 8.74531 96.3019 6.87669C97.7195 3.60661 100.328 1.7088 103.617 1.47522C109.004 1.06646 114.42 1.15405 119.835 1.03726C119.892 1.03726 119.949 1.09565 120.062 1.15405C120.062 2.78909 120.062 4.45333 120.062 6.23435C119.58 6.23435 119.183 6.23435 118.758 6.23435C114.76 6.26355 110.762 6.20516 106.764 6.35114C103.447 6.46793 101.547 8.48254 101.377 11.8694C101.264 14.2636 101.349 16.6577 101.349 19.1979C103.56 19.1979 105.772 19.1979 108.069 19.1979C108.069 21.0081 108.069 22.6723 108.069 24.4534C105.857 24.4534 103.674 24.4534 101.377 24.4534C101.377 29.8256 101.377 35.0811 101.377 40.4534Z" fill="black"/>
<path d="M23.856 41.4907C18.7373 41.4907 14.8332 40.236 12.1148 37.7559C9.39643 35.2758 8.03723 31.6578 8.03723 26.8727V14.618C8.03723 9.83289 9.39643 6.21485 12.1148 3.73475C14.8332 1.25464 18.7373 0 23.856 0C28.9746 0 32.8498 1.25464 35.5393 3.73475C38.2577 6.21485 39.6169 9.83289 39.6169 14.618V26.8727C39.6169 31.6578 38.2577 35.2758 35.5393 37.7559C32.8498 40.236 28.9457 41.4907 23.856 41.4907ZM23.856 36.1512C26.8057 36.1512 29.0614 35.3634 30.623 33.817C32.2136 32.2122 33.0233 29.9071 33.0233 26.9018V14.6472C33.0233 11.6419 32.2136 9.33686 30.623 7.79044C29.0614 6.18567 26.8057 5.39787 23.856 5.39787C20.8773 5.39787 18.5927 6.18567 16.9732 7.79044C15.4116 9.36604 14.6308 11.6419 14.6308 14.6472V26.9018C14.6308 29.9071 15.4116 32.2122 16.9732 33.817C18.5638 35.3926 20.8484 36.1512 23.856 36.1512ZM61.3929 21.1538L73.6257 40.7904H66.1356L57.1418 26.3183L48.0901 40.7904H40.6869L53.4402 20.366L41.2074 0.729442H48.6974L57.6913 15.2016L66.6851 0.729442H74.0016L61.3929 21.1538ZM79.0335 0.729442H85.6271V40.7904H79.0335V0.729442ZM127.994 0.729442H134.587V40.7904H127.994V0.729442ZM160.325 21.1538L172.558 40.7904H165.068L156.074 26.3183L147.022 40.7904H139.648L152.401 20.366L140.168 0.729442H147.658L156.652 15.2016L165.646 0.729442H172.963L160.325 21.1538Z" fill="black"/>
<path d="M119.025 6.2236H112.801V9.3354H119.025V6.2236Z" fill="black"/>
</svg>
